<svg width="219" height="91" viewBox="0 0 219 91" fill="none" xmlns="http://www.w3.org/2000/svg">
<path fill-rule="evenodd" clip-rule="evenodd" d="M0 71.1051C0 71.1051 142.86 73.1185 159.838 71.1051C176.816 69.0918 212.313 61.5216 218.479 47.3475C218.479 47.3475 139.062 49.0483 134.706 47.3475C130.35 45.6466 126.851 38.9225 124.318 31.7334C122.808 27.4453 121.41 19.1566 121.973 14.5598C122.536 9.96295 124.318 3.54625 124.318 3.54625C91.1679 -1.71761 34 -0.5 0 8.69084V71.1051Z" fill="url(#paint0_linear_2154_8)"/>
<path d="M218.479 47.3475C224.644 33.1734 174.582 15.6705 148.78 8.69083C140.344 6.63106 138.587 5.81184 124.318 3.54625C124.318 3.54625 122.536 9.96295 121.973 14.5598C121.41 19.1566 122.808 27.4453 124.318 31.7334C126.851 38.9225 130.35 45.6466 134.706 47.3475C139.062 49.0483 218.479 47.3475 218.479 47.3475Z" fill="#FDA4AF"/>
<ellipse cx="74" cy="56.5" rx="34" ry="34.5" fill="url(#paint1_linear_2154_8)"/>
<path d="M74 24C91.6457 24 106 38.5231 106 56.5C106 74.4769 91.6457 89 74 89C56.3543 89 42 74.4769 42 56.5C42 38.5231 56.3543 24 74 24Z" stroke="black" stroke-opacity="0.2" stroke-width="4"/>
<defs>
<linearGradient id="paint0_linear_2154_8" x1="219" y1="1.2716" x2="7.25163" y2="89.4198" gradientUnits="userSpaceOnUse">
<stop stop-color="#E11D48"/>
<stop offset="1" stop-color="#E11D48"/>
</linearGradient>
<linearGradient id="paint1_linear_2154_8" x1="74" y1="91" x2="107.4" y2="47.8583" gradientUnits="userSpaceOnUse">
<stop stop-color="#E21D48"/>
<stop offset="1" stop-color="#CB1A58"/>
</linearGradient>
</defs>
</svg>
