<svg width="36" height="30" viewBox="0 0 36 30" fill="none" xmlns="http://www.w3.org/2000/svg">
<path d="M5.27486 25.7509H30.7252C34.253 25.7509 36 24.0166 36 20.5812V8.45769C36 5.02239 34.253 3.28806 30.7252 3.28806H5.27486C1.76388 3.28806 0 5.00571 0 8.45769V20.5812C0 24.0332 1.76388 25.7509 5.27486 25.7509ZM5.30846 23.066C3.62857 23.066 2.70463 22.1821 2.70463 20.4478V8.5911C2.70463 6.85678 3.62857 5.97294 5.30846 5.97294H30.6916C32.3379 5.97294 33.2955 6.85678 33.2955 8.5911V20.4478C33.2955 22.1821 32.3379 23.066 30.6916 23.066H5.30846ZM5.79562 4.38869H8.50025V1.35363C8.50025 0.553169 7.94588 0.0195312 7.13954 0.0195312C6.33319 0.0195312 5.79562 0.553169 5.79562 1.35363V4.38869ZM11.2217 4.38869H13.9263V1.35363C13.9263 0.553169 13.3719 0.0195312 12.5656 0.0195312C11.7592 0.0195312 11.2217 0.553169 11.2217 1.35363V4.38869ZM16.6477 4.38869H19.3523V1.35363C19.3523 0.553169 18.7979 0.0195312 17.9917 0.0195312C17.1853 0.0195312 16.6477 0.553169 16.6477 1.35363V4.38869ZM22.0737 4.38869H24.7784V1.35363C24.7784 0.553169 24.2408 0.0195312 23.4344 0.0195312C22.6281 0.0195312 22.0737 0.553169 22.0737 1.35363V4.38869ZM27.4998 4.38869H30.2044V1.35363C30.2044 0.553169 29.6669 0.0195312 28.8604 0.0195312C28.0542 0.0195312 27.4998 0.553169 27.4998 1.35363V4.38869ZM5.79562 24.6837V27.6686C5.79562 28.4692 6.33319 29.0195 7.13954 29.0195C7.94588 29.0195 8.50025 28.4692 8.50025 27.6686V24.6837H5.79562ZM11.2217 24.6837V27.6686C11.2217 28.4692 11.7592 29.0195 12.5656 29.0195C13.3719 29.0195 13.9263 28.4692 13.9263 27.6686V24.6837H11.2217ZM16.6477 24.6837V27.6686C16.6477 28.4692 17.1853 29.0195 17.9917 29.0195C18.7979 29.0195 19.3523 28.4692 19.3523 27.6686V24.6837H16.6477ZM22.0737 24.6837V27.6686C22.0737 28.4692 22.6281 29.0195 23.4344 29.0195C24.2408 29.0195 24.7784 28.4692 24.7784 27.6686V24.6837H22.0737ZM27.4998 24.6837V27.6686C27.4998 28.4692 28.0542 29.0195 28.8604 29.0195C29.6669 29.0195 30.2044 28.4692 30.2044 27.6686V24.6837H27.4998Z" fill="#FFF1F2" fill-opacity="0.9"/>
</svg>
