<svg width="862" height="476" viewBox="0 0 862 476" fill="none" xmlns="http://www.w3.org/2000/svg">
<path d="M435.561 435.729C451.213 435.385 559.499 446.519 562.477 432.364C565.576 417.63 567.824 402.718 570.202 388.09C570.718 384.919 569.05 381.667 566.025 380.587C565.645 380.451 565.293 380.375 564.941 380.373C525.22 380.147 485.5 379.982 445.778 380.029C442.797 380.033 438.52 380.728 437.04 382.731C426.339 397.211 415.978 411.942 404.218 428.597C400.981 433.181 404.258 439.514 409.869 439.516C456.508 439.529 499.719 439.59 542.654 439.296" fill="white"/>
<path d="M463.951 240.542C463.618 241.235 463.282 241.943 463.185 242.706C463.09 243.468 463.276 244.309 463.85 244.82C464.469 245.372 465.411 245.426 466.2 245.167C466.988 244.909 467.658 244.388 468.311 243.877C470.4 242.24 472.489 240.603 474.577 238.967C475.551 238.204 476.535 237.202 477.613 236.598C478.52 236.089 479.53 235.658 480.469 235.182C484.67 233.055 489.166 231.222 493.847 230.509C515.086 227.272 539.678 230.951 561.193 231.203C568.257 231.286 575.516 231.336 582.119 228.821C591.653 225.191 598.594 216.558 602.505 207.134C605.301 200.402 607.853 191.951 608.006 184.605C608.219 174.514 605.462 176.822 595.374 176.817C577.74 176.808 560.106 176.811 542.472 176.817C535.363 176.819 528.255 176.828 521.147 176.815C517.733 176.809 514.32 176.788 510.907 176.755C504.943 176.699 498.98 176.64 493.016 176.59C490.303 176.567 487.751 177.138 486.16 179.568" fill="white"/>
<path d="M363.283 314.727C362.726 316.329 362.162 317.948 361.592 319.586H412.384C401.38 352.665 380.612 430.399 377.42 437.155C377.075 437.884 376.726 438.63 376.645 439.432C376.565 440.233 376.805 441.115 377.448 441.6C378.141 442.121 379.139 442.061 379.916 441.678C380.695 441.296 381.302 440.645 381.89 440.009C390.493 430.704 431.129 372.83 451.727 343.115C452.209 342.376 452.691 341.636 453.173 340.897C454.598 338.714 456.021 336.533 457.446 334.351C459.539 331.146 461.63 327.942 463.724 324.738C466.208 320.935 468.694 317.133 471.18 313.331C473.781 309.355 476.383 305.379 478.986 301.404C481.427 297.678 483.87 293.953 486.315 290.229C488.319 287.178 490.325 284.129 492.337 281.082C493.091 279.943 493.845 278.803 494.601 277.666C495.212 276.748 495.806 275.899 495.064 274.808C494.45 273.906 493.477 273.915 492.504 273.915H443.823C447.002 261.757 449.223 255.34 451.422 248.916C454.952 238.605 458.471 228.29 461.956 217.965C465.318 208.003 468.664 198.035 471.887 188.027C472.5 186.119 473.111 184.209 473.709 182.295C474.114 181.001 476.084 177.177 474.282 176.644C473.781 176.496 473.23 176.661 472.8 176.957C472.37 177.254 472.04 177.671 471.716 178.08" fill="white"/>
<path d="M480.108 333.135C476.2 333.133 473.926 328.7 476.19 325.514C489.011 307.481 499.882 292.115 511.005 276.936C512.323 275.138 515.572 273.907 517.944 273.875C534.557 273.648 551.172 273.72 569.943 273.736C572.929 273.738 575.203 276.447 574.693 279.39C571.744 296.426 569.199 311.73 566.138 326.93C565.657 329.317 562.11 332.835 559.942 332.866C534.502 333.228 509.056 333.152 480.108 333.135Z" fill="white"/>
<path d="M806.06 425.715C808.169 432.282 804.241 439.402 798.483 439.427C777.837 439.515 758.864 439.727 739.922 438.892C736.442 438.738 731.754 432.604 730.02 427.914C719.399 399.184 709.412 370.105 698.401 338.736C697.898 337.302 696.378 336.936 695.464 338.022C684.541 350.992 672.776 360.775 670.613 380.308C668.857 396.171 666.792 412.048 663.752 427.594C662.868 432.114 658.277 438.721 655.172 438.902C639.654 439.803 624.091 439.559 607.231 439.461C602.234 439.431 598.413 433.948 599.166 427.894C600.717 415.422 602.133 403.878 603.687 392.362C609.552 348.892 615.539 305.447 621.402 261.977C624.33 240.275 623.277 217.14 630.066 196.785C632.488 189.525 638.6 177.435 646.154 174.631C649.13 173.526 652.348 173.325 655.513 173.134L695.349 171.569C699.27 171.094 705.795 173.31 703.58 177.246C701.272 181.348 697.087 186.072 696.139 190.335C694.14 199.325 693.83 208.513 692.662 217.625C690.674 233.128 688.687 248.631 686.699 264.134C688.243 264.772 688.064 264.698 689.608 265.336C703.578 246.741 717.586 228.189 731.502 209.534C740.848 197.006 751.528 174.061 765.785 168.052C784.978 159.966 807.233 150.143 827.25 144.366C830.803 143.34 834.77 142.348 838.057 144.053C841.782 145.987 843.199 150.873 842.427 155.029C841.928 157.725 840.692 160.85 839.075 164.079C835.51 171.193 830.089 178.813 826.596 183.462C819.35 193.107 812.112 202.757 804.854 212.395C790.364 231.639 775.808 250.834 761.002 269.832C754.305 278.425 753.445 285.429 757.546 296.033C773.577 337.487 788.93 379.332 804.464 421.071C805.021 422.569 805.537 424.088 806.06 425.715Z" fill="white"/>
<path d="M0 149.554C80.1982 107.704 157.886 60.4587 254.633 69.1417C371.12 79.5957 487.596 91.4692 604.836 89.9494C621.898 89.7276 638.472 87.1598 654.58 81.925C663.879 78.9019 675.404 76.303 676.952 64.9111C678.503 53.5036 667.687 48.0373 659.902 42.4824C633.346 23.5322 603.385 14.2663 570.823 12.8827C514.216 10.4765 458.068 12.7037 403.316 30.0854C423.097 16.1569 462.938 5.21933 508.926 1.6669C598.303 -5.23656 683.212 8.33878 758.696 60.5608C783.711 77.8667 812.749 78.4767 841.076 82.6772C848.248 83.7407 859.304 79.259 861.081 89.9066C862.522 98.5459 852.792 102.597 846.347 106.811C800.915 136.504 751.146 151.145 696.817 146.604C539.603 133.461 382.288 123.568 224.386 127.041C149.114 128.698 74.4986 136.102 0 149.554Z" fill="white"/>
<path d="M297.64 120.761C277.783 371.888 271.406 402.654 129.499 475.863C185.018 454.133 228.171 444.611 279.447 404.986C341.301 357.19 381.606 220.348 397.343 112.034" fill="white"/>
</svg>
